{"title":"Son of God(2014)MPEG-4[DaScubaDude]","uid":15533955,"size":1515376209,"categoryP":"video","categoryS":"movies","magnet":"?xt=urn:btih:7abfda1aff8e9aa554efd55f573c7a6857b1733f&amp;dn=Son+of+God%282014%29MPEG-4%5BDaScubaDude%5D&amp;tr=udp%3A%2F%2Ftracker.leechers-paradise.org%3A6969&amp;tr=udp%3A%2F%2Fzer0day.ch%3A1337&amp;tr=udp%3A%2F%2Fopen.demonii.com%3A1337&amp;tr=udp%3A%2F%2Ftracker.coppersurfer.tk%3A6969&amp;tr=udp%3A%2F%2Fexodus.desync.com%3A6969","seeders":1,"leechers":0,"uploader":"dascuba","files":1,"time":1470861513,"description":"Son of God (2014)\r\nPG-13 | 2h 18min | Biography, Drama, History | 28 February 2014 (USA)\r\nThe life story of Jesus is told from his humble birth through his teachings, crucifixion and ultimate resurrection.\r\nDirector: Christopher Spencer\r\nWriters: Richard Bedser, Christopher Spencer | \r\nStars: Diogo Morgado, Amber Rose Revah, Greg Hicks |\r\n\r\nGeneral\r\nComplete name                            : Son of GodSONOFGOD_Title1.mp4\r\nFormat                                   : MPEG-4\r\nFormat profile                           : Base Media\r\nCodec ID                                 : isom (isom/iso2/avc1/mp41)\r\nFile size                                : 1.41 GiB\r\nDuration                                 : 2h 18mn\r\nOverall bit rate                         : 1 463 Kbps\r\nMovie name                               : SONOFGOD\r\nGenre                                    : Drama\r\nWriting application                      : Lavf54.6.100\r\n\r\nVideo\r\nID                                       : 1\r\nFormat                                   : AVC\r\nFormat/Info                              : Advanced Video Codec\r\nFormat profile                           :   \r\nFormat settings, CABAC                   : No\r\nFormat settings, ReFrames                : 6 frames\r\nCodec ID                                 : avc1\r\nCodec ID/Info                            : Advanced Video Coding\r\nDuration                                 : 2h 18mn\r\nBit rate                                 : 1 194 Kbps\r\nWidth                                    : 720 pixels\r\nHeight                                   : 404 pixels\r\nDisplay aspect ratio                     : 16:9\r\nFrame rate mode                          : Constant\r\nFrame rate                               : 29.970 (30000/1001) fps\r\nColor space                              : YUV\r\nChroma subsampling                       : 4:2:0\r\nBit depth                                : 8 bits\r\nScan type                                : Progressive\r\nBits/(Pixel*Frame)                       : 0.137\r\nStream size                              : 1.15 GiB (82%)\r\n\r\nAudio\r\nID                                       : 2\r\nFormat                                   : AAC\r\nFormat/Info                              : Advanced Audio Codec\r\nFormat profile                           : LC\r\nCodec ID                                 : 40\r\nDuration                                 : 2h 18mn\r\nBit rate mode                            : Constant\r\nBit rate                                 : 265 Kbps\r\nChannel(s)                               : 2 channels\r\nChannel(s)_Original                      : 6 channels\r\nChannel positions                        : Front: L C R, Side: L R, LFE\r\nSampling rate                            : 44.1 KHz\r\nFrame rate                               : 43.066 fps (1024 spf)\r\nCompression mode                         : Lossy\r\nStream size                              : 259 MiB (18%)\r\nDefault                                  : Yes\r\nAlternate group                          : 1","torrent":{"xt":"urn:btih:7abfda1aff8e9aa554efd55f573c7a6857b1733f","amp;dn":"Son+of+God%282014%29MPEG-4%5BDaScubaDude%5D","amp;tr":["udp%3A%2F%2Ftracker.leechers-paradise.org%3A6969","udp%3A%2F%2Fzer0day.ch%3A1337","udp%3A%2F%2Fopen.demonii.com%3A1337","udp%3A%2F%2Ftracker.coppersurfer.tk%3A6969","udp%3A%2F%2Fexodus.desync.com%3A6969"],"infoHash":"7abfda1aff8e9aa554efd55f573c7a6857b1733f","infoHashBuffer":{"type":"Buffer","data":[122,191,218,26,255,142,154,165,84,239,213,95,87,60,122,104,87,177,115,63]},"announce":[],"urlList":[]}}